<svg width="164" height="72" viewBox="0 0 164 72" fill="none" xmlns="http://www.w3.org/2000/svg">
<path d="M50.9219 0.363129C48.1657 1.30956 45.7747 3.88318 43.7989 8.03418C42.1551 11.4712 41.4411 14.2275 41.4245 17.2494C41.4079 19.9725 41.6072 20.4374 43.417 21.8985C45.343 23.4593 45.8578 23.725 47.0864 23.725C47.9996 23.725 48.1989 23.6585 48.6638 23.2434C49.1951 22.7785 49.2117 22.7121 49.2283 21.4502C49.2449 19.9725 49.4276 19.5241 50.1249 19.1589C51.4865 18.4615 53.6782 19.4079 54.1265 20.9023C54.3755 21.7325 54.2095 22.7619 53.6283 23.891C52.9642 25.1861 52.6487 25.3521 50.7559 25.5348C48.6804 25.734 47.5347 26.282 45.5423 28.0254C44.7287 28.7228 43.9483 29.3537 43.7823 29.4035C43.3174 29.5862 43.0019 29.0216 42.4042 26.9129C41.3083 23.0442 40.4117 21.7325 38.8675 21.7325C36.5762 21.7325 35.2147 24.3061 34.3513 30.2337C34.0026 32.6745 33.737 33.4217 33.2057 33.5711C32.6909 33.704 31.7113 33.1394 30.466 32.027C28.9883 30.7152 28.2577 30.3998 26.1656 30.2171C24.5219 30.0843 24.4886 30.0677 23.9407 29.4699C22.8947 28.3243 23.343 27.3114 25.1694 26.6971C26.5143 26.2488 27.6766 25.2027 28.0419 24.0902C28.1913 23.6087 28.4736 23.2102 28.8555 22.928C29.1875 22.6789 29.586 22.3302 29.7521 22.1476C31.18 20.537 31.1966 17.5981 29.7853 16.1867C29.1211 15.506 29.0049 15.3233 28.3905 13.6131C27.0954 10.0765 25.0532 8.86438 20.072 8.66513C16.0871 8.51569 13.5301 9.22966 11.8033 10.9897C10.7905 12.0191 10.2094 13.2146 9.77767 15.1905C9.51201 16.4026 9.37918 16.7015 8.98069 17.0335C7.86823 17.8969 7.35351 20.0887 7.86823 21.8155C8.1837 22.928 9.29616 24.2231 9.9271 24.2231C10.1596 24.2231 10.4584 24.4887 10.8237 24.9869C11.4048 25.8171 12.2682 26.3318 13.7792 26.7801C15.5392 27.2782 16.2698 28.7228 15.3399 29.8518C14.8086 30.4662 14.2441 30.6488 12.3845 30.765C9.44559 30.9477 7.81842 32.2594 6.04181 35.9289C5.46068 37.1078 4.77992 38.7516 4.54747 39.5652C3.85011 41.8565 2.98671 43.766 1.99048 45.2271C0.745194 47.0536 0.130853 48.4317 0.0312299 49.6272C-0.101601 50.9555 0.180664 51.5699 1.04406 51.9683C2.58822 52.6657 4.66369 52.1012 5.61011 50.723C6.10823 50.0091 6.62294 48.5479 6.62294 47.8174C6.62294 47.369 6.8554 46.7879 8.28333 43.6497C9.17993 41.6573 9.64484 40.9931 10.1097 40.9931C10.4584 40.9931 10.8569 41.4248 11.106 42.0724C11.3716 42.7697 11.3218 46.9872 11.023 49.5442C10.475 54.0438 10.4252 55.3722 10.6411 59.6726C10.7573 61.9474 10.8403 65.0523 10.8071 66.5633C10.7739 69.1535 10.7905 69.3361 11.1392 69.9505C11.6871 70.8803 12.5671 71.2954 14.0116 71.2954C15.423 71.2788 16.0705 70.9799 16.7181 70.0169L17.1664 69.3195L17.2992 62.927C17.4154 57.7631 17.4818 56.4514 17.6811 56.1526C18.5279 54.8408 21.6162 54.9239 22.3135 56.2688C22.4464 56.5178 22.712 57.8296 22.9113 59.1911C23.2268 61.2002 23.2932 62.3957 23.3098 65.484C23.3098 69.0373 23.3264 69.3527 23.6585 69.8841C24.3558 71.0962 25.8004 71.5943 27.4773 71.229C28.5898 70.9799 29.2539 70.349 29.5196 69.3029C29.669 68.6886 29.6524 68.1739 29.4366 66.6795L29.1543 64.8198L29.6856 60.1375C30.3498 54.3925 30.3996 51.437 29.9015 48.6309C29.4698 46.2068 29.2872 40.2625 29.6358 39.9803C29.8019 39.8474 30.2004 39.9138 31.1468 40.2293C33.4547 40.9931 34.9823 40.7274 36.2441 39.3327C37.1241 38.3531 37.423 37.5893 38.0042 34.7832C38.7513 31.23 39.1664 30.3333 39.4155 31.8277C39.6645 33.3221 40.0298 34.4511 40.4283 34.9659C41.3747 36.2278 42.5536 36.3274 44.6457 35.3478C45.4261 34.9825 46.1732 34.6836 46.3227 34.6836C46.4555 34.6836 46.7544 34.8828 46.9868 35.1153C48.1989 36.4104 47.0532 41.1591 44.0645 47.1532C42.8525 49.5442 42.6366 50.2747 42.62 51.7027C42.6034 53.5955 43.1015 54.0438 45.6087 54.4922C47.2525 54.791 48.0661 55.3224 48.2155 56.1526C48.3151 56.6839 48.3483 65.5836 48.2653 68.2569C48.2155 69.4856 48.2653 69.7678 48.5642 70.1663C49.3114 71.1792 51.3204 71.6607 52.6985 71.146C54.2593 70.5482 54.6744 69.4192 54.5083 66.0984C54.4253 64.5542 54.4751 63.5247 54.6744 62.1964C54.9566 60.287 55.0231 57.1488 54.7906 55.9533C54.7076 55.5382 54.6744 55.1397 54.7076 55.0401C54.7906 54.8242 59.5891 54.8907 59.805 55.1065C59.888 55.1729 59.971 56.0031 59.9876 56.9495C60.0208 57.896 60.1702 59.5398 60.3197 60.5858C60.5355 62.0304 60.5853 63.3753 60.5521 66.0651C60.5023 69.4025 60.5189 69.6682 60.8344 70.2161C61.3491 71.0795 62.0963 71.4116 63.4412 71.3452C64.7031 71.2788 65.2676 70.9633 65.8155 70.0335C66.0978 69.5354 66.131 69.2033 66.0978 67.4765C66.0812 66.2976 66.1808 64.7368 66.3303 63.6576C66.6291 61.6817 66.5793 60.2537 66.131 57.3813C65.8487 55.5714 65.8986 55.0401 66.3967 54.7744C66.5793 54.6748 67.4261 54.542 68.2895 54.459C69.1529 54.3759 69.9997 54.2265 70.1657 54.1435C71.4774 53.4295 71.5107 51.985 70.282 49.2785C69.9665 48.5811 69.4684 47.1864 69.1695 46.2068C68.854 45.2105 68.1069 43.0852 67.5091 41.4912C65.882 37.1576 65.7159 35.9289 66.6955 35.5304C67.5423 35.1817 68.7378 35.9621 69.9001 37.6225C70.3816 38.3199 72.3408 42.4377 73.1544 44.4799C73.3869 45.0777 73.7688 45.8083 74.0012 46.1237C75.4292 48.0664 78.5175 47.0204 78.5175 44.5962C78.5175 43.8988 78.3016 43.3177 77.1892 40.9765C76.4586 39.4489 75.6284 37.5395 75.3461 36.7259C74.2669 33.6874 72.922 31.5786 70.6805 29.4533C68.9039 27.7597 67.4095 26.9793 64.6699 26.3152C61.3989 25.5182 61.017 25.1197 61.0004 22.5295C61.0004 21.1513 61.0502 20.8691 61.3491 20.454C62.445 18.9596 64.0223 18.86 65.251 20.1883C65.8487 20.8193 65.9982 21.1679 66.1476 22.1476C66.3635 23.6253 66.8616 24.2065 68.2563 24.5718C69.734 24.9703 70.6639 24.1068 71.5605 21.5332C72.1582 19.8064 72.1582 19.4411 71.5439 17.5317C71.1122 16.1701 71.0457 15.7218 71.0457 14.0614C71.0457 8.61531 68.9869 3.75034 65.7823 1.59183C63.6072 0.130669 61.3657 -0.284424 58.294 0.230293C56.6004 0.512566 56.4344 0.512566 55.2887 0.263504C53.6117 -0.118385 52.2668 -0.0851822 50.9219 0.363129Z" fill="white"/>
<path d="M87.9824 20.155V25.0532H89.0617H90.1409V23.1437V21.2343H91.8843H93.6277V20.4041V19.5739H91.8843H90.1409V18.3286V17.0833H92.2164H94.2919V16.1701V15.2568H91.1371H87.9824V20.155Z" fill="white"/>
<path d="M96.2852 18.7767C96.2852 22.7617 96.3848 23.1934 97.4972 24.173C98.261 24.8372 99.1078 25.1195 100.353 25.1195C101.598 25.1195 102.445 24.8372 103.209 24.173C104.321 23.1934 104.421 22.7617 104.421 18.7767V15.2567H103.342H102.263V18.6771V22.0975L101.698 22.6621C101.216 23.1436 101.017 23.2266 100.353 23.2266C99.6889 23.2266 99.4897 23.1436 99.0082 22.6621L98.4437 22.0975V18.6771V15.2567H97.3644H96.2852V18.7767Z" fill="white"/>
<path d="M107.242 20.1549V25.0531H108.155H109.069L109.085 21.9316V18.8266L109.434 19.2749C109.633 19.524 110.729 20.9021 111.875 22.3467L113.967 24.9701L114.764 25.0199L115.544 25.0697V20.1716V15.2568H114.631H113.718L113.684 18.3285L113.635 21.4002L111.526 18.6938C108.72 15.1073 108.869 15.2568 107.989 15.2568H107.242V20.1549Z" fill="white"/>
<path d="M118.367 20.155V25.0864L121.074 25.02C124.079 24.9536 124.743 24.7709 125.806 23.7083C126.852 22.6788 127.084 22.0147 127.084 20.155C127.084 18.2954 126.835 17.6146 125.806 16.635C124.726 15.5889 123.896 15.3565 120.991 15.2901L118.367 15.2236V20.155ZM123.697 17.4652C125.241 18.478 125.457 21.1015 124.129 22.5294C123.531 23.1604 122.8 23.3928 121.489 23.3928H120.526V20.238V17.0833H121.837C122.9 17.0833 123.232 17.1497 123.697 17.4652Z" fill="white"/>
<path d="M131.749 15.3898C131.649 15.5558 127.996 24.8873 127.996 24.9869C127.996 25.0865 129.756 25.0699 130.055 24.9537C130.188 24.9039 130.47 24.3725 130.653 23.7914L131.018 22.7121L132.844 22.7619L134.671 22.8118L135.003 23.725C135.202 24.2231 135.418 24.7378 135.518 24.8374C135.7 25.0865 137.626 25.1363 137.626 24.9039C137.626 24.8208 136.946 23.011 136.115 20.8691C135.285 18.7438 134.455 16.6019 134.272 16.1203L133.957 15.2569H132.894C132.313 15.2569 131.798 15.3234 131.749 15.3898ZM133.542 19.5242L134.123 21.2344H132.894C132.213 21.2344 131.649 21.168 131.649 21.1015C131.649 21.0185 131.881 20.3378 132.147 19.5574C132.429 18.7936 132.695 18.063 132.745 17.9302C132.861 17.5981 132.894 17.6645 133.542 19.5242Z" fill="white"/>
<path d="M141.197 15.6551C139.487 16.4687 138.574 17.9797 138.557 20.0718C138.524 23.2266 140.267 25.1028 143.273 25.1194C144.335 25.136 144.667 25.053 145.514 24.6379C146.776 23.9904 146.925 23.7579 146.427 23.0937C145.979 22.4794 145.597 22.4296 144.966 22.8945C143.754 23.7911 141.861 23.293 141.164 21.8983C140.682 20.9684 140.649 19.4575 141.097 18.4778C141.712 17.1329 143.306 16.7012 144.85 17.4484C145.713 17.8635 145.913 17.7971 146.444 16.9669L146.776 16.4355L146.128 16.0038C145.265 15.4393 144.568 15.2566 143.19 15.2566C142.31 15.2566 141.828 15.3563 141.197 15.6551Z" fill="white"/>
<path d="M150.911 18.6606C150.911 23.1769 150.862 23.3097 149.002 23.426L148.338 23.4758L148.288 24.2562L148.238 25.02L149.135 25.1362C150.696 25.3354 152.041 24.7211 152.705 23.4924C152.937 23.0607 153.004 22.3799 153.037 19.1089L153.103 15.2568H152.007H150.911V18.6606Z" fill="white"/>
<path d="M156.256 20.0387C155.227 22.6621 154.396 24.8704 154.396 24.9368C154.396 25.1693 156.339 25.0531 156.538 24.8206C156.638 24.7044 156.87 24.1897 157.036 23.7081L157.335 22.8115L159.162 22.7617L160.988 22.7119L161.287 23.5089C161.818 24.97 161.918 25.0531 163.047 25.0531C163.794 25.0531 164.043 25.0033 163.993 24.8372C163.96 24.7044 163.13 22.5127 162.117 19.939L160.291 15.2567H159.212H158.116L156.256 20.0387ZM159.926 19.607L160.49 21.2341H159.212H157.916L158.531 19.5073C158.863 18.5443 159.178 17.8137 159.245 17.8801C159.311 17.9466 159.61 18.7269 159.926 19.607Z" fill="white"/>
<path d="M87.9824 33.4383V38.3697L90.6058 38.3199C93.0632 38.2535 93.2624 38.2203 94.159 37.7886C95.836 36.9584 96.7824 35.3976 96.7824 33.4549C96.7824 31.5123 95.8526 29.9183 94.2255 29.0715C93.4285 28.6564 93.2126 28.6398 90.6888 28.5734L87.9824 28.5069V33.4383ZM93.1462 30.6323C94.3749 31.3462 94.873 32.9236 94.3915 34.5508C93.9764 35.9787 93.2956 36.4603 91.3862 36.6263L90.1409 36.7259V33.4383V30.1507L91.3696 30.2338C92.1666 30.2836 92.7809 30.433 93.1462 30.6323Z" fill="white"/>
<path d="M99.4729 33.3054C98.4435 35.9455 97.6133 38.1372 97.6133 38.2036C97.6133 38.4361 99.5559 38.353 99.7552 38.104C99.8548 37.9878 100.087 37.473 100.253 36.9915L100.552 36.0949L102.395 36.0451L104.222 35.9953L104.587 36.9583C104.786 37.4896 105.019 38.0044 105.118 38.1206C105.301 38.353 107.243 38.4361 107.243 38.2202C107.243 38.1538 106.413 35.9621 105.384 33.322L103.524 28.5401H102.428H101.333L99.4729 33.3054ZM103.126 32.7741L103.74 34.5175H102.428H101.117L101.731 32.7741C102.063 31.8111 102.379 31.0307 102.428 31.0307C102.478 31.0307 102.794 31.8111 103.126 32.7741Z" fill="white"/>
<path d="M111.192 32.276C111.142 36.6096 111.142 36.593 109.698 36.593C108.834 36.593 108.834 36.593 108.685 37.224C108.436 38.2368 108.552 38.3365 110.013 38.3365C111.043 38.3365 111.425 38.27 111.89 37.9878C113.218 37.1742 113.351 36.6428 113.367 32.2262L113.384 28.5401H112.321H111.242L111.192 32.276Z" fill="white"/>
<path d="M116.207 33.4383V38.3365H119.378H122.533L122.483 37.4564L122.433 36.593L120.408 36.5432L118.366 36.4934V35.3477V34.1855H119.943H121.52V33.3553V32.5251H119.943H118.366V31.3628V30.2005H120.441H122.516V29.3703V28.5401H119.362H116.207V33.4383Z" fill="white"/>
<path d="M124.842 33.4383V38.3365H125.755H126.668L126.701 35.1817L126.751 32.0269L128.08 34.5673L129.408 37.0912H130.155H130.902L132.264 34.5175L133.642 31.9439V35.1319V38.3365H134.555H135.468V33.4383V28.5401H134.489C133.293 28.5401 133.409 28.4073 131.566 31.9771C130.836 33.3719 130.205 34.5175 130.155 34.5175C130.105 34.5175 129.441 33.3054 128.677 31.8111C127.914 30.3333 127.166 28.9884 127.034 28.8224C126.851 28.6231 126.535 28.5401 125.805 28.5401H124.842V33.4383Z" fill="white"/>
<path d="M137.295 28.6231C137.295 28.6729 138.075 30.0345 139.038 31.6616L140.782 34.6172V36.4768V38.3365H141.861H142.94V36.4602V34.6006L144.684 31.6284C145.647 30.0012 146.427 28.6397 146.427 28.6065C146.427 28.5733 145.946 28.5401 145.364 28.5401C144.634 28.5401 144.219 28.6231 144.036 28.7892C143.903 28.922 143.355 29.885 142.841 30.9311L141.878 32.8239L140.815 30.8148C140.217 29.7024 139.669 28.7393 139.553 28.6729C139.337 28.5235 137.295 28.4903 137.295 28.6231Z" fill="white"/>
<path d="M123.812 41.8731C122.451 42.255 121.272 43.4007 120.774 44.7954C120.458 45.7253 120.458 47.7011 120.79 48.6642C121.106 49.6272 122.019 50.6899 122.916 51.1714C123.48 51.4702 123.862 51.5367 125.257 51.5367C127.033 51.5367 127.465 51.4038 128.395 50.5404L128.876 50.0921L128.295 49.511L127.697 48.9298L126.967 49.3615C125.456 50.2415 123.829 49.8098 123.048 48.2989C122.716 47.6679 122.666 47.3691 122.733 46.4392C122.816 45.0445 123.214 44.3471 124.177 43.849C125.057 43.4007 126.054 43.4505 126.917 43.9818C127.581 44.3969 127.88 44.2973 128.345 43.5335C128.71 42.9524 128.71 42.9358 128.395 42.6867C127.266 41.8233 125.257 41.4746 123.812 41.8731Z" fill="white"/>
<path d="M138.624 41.8731C136.465 42.4874 135.137 44.2973 135.137 46.6218C135.137 48.1328 135.568 49.2453 136.548 50.2249C137.544 51.2211 138.541 51.6196 140.118 51.6196C141.695 51.6196 142.691 51.2378 143.721 50.2083C144.8 49.1124 145.182 48 145.066 46.2399C144.883 43.5999 143.19 41.9063 140.516 41.7403C139.852 41.6905 139.055 41.7403 138.624 41.8731ZM141.164 43.7161C142.326 44.1977 143.04 45.5758 142.891 47.0535C142.708 48.88 141.845 49.7102 140.118 49.7102C138.839 49.7102 138.175 49.3283 137.71 48.3487C136.415 45.609 138.624 42.6535 141.164 43.7161Z" fill="white"/>
<path d="M87.9824 46.7379V51.6527L90.5228 51.5696C93.2956 51.4866 94.159 51.2874 95.1387 50.4738C96.5334 49.3115 97.1145 47.07 96.5334 45.0443C96.3175 44.2805 96.0685 43.882 95.4043 43.2178C94.2255 42.0389 93.4451 41.8231 90.3568 41.8231H87.9824V46.7379ZM92.8473 43.7159C94.4081 44.3635 95.0556 46.5884 94.1922 48.3983C93.7273 49.3613 93.0798 49.6934 91.519 49.7764L90.1409 49.8262V46.6549V43.4835H91.2202C91.8179 43.4835 92.5485 43.5831 92.8473 43.7159Z" fill="white"/>
<path d="M98.2774 42.6535V43.4837H100.436C101.631 43.4837 102.594 43.5335 102.594 43.5833C102.594 43.6331 101.548 45.1773 100.27 46.9871C98.211 49.9094 97.9453 50.3577 97.9453 50.9555V51.6196H101.681H105.417V50.7064V49.8098L103.109 49.76L100.801 49.7102L103.192 46.323C105.102 43.5999 105.583 42.8195 105.583 42.3712V41.8233H101.93H98.2774V42.6535Z" fill="white"/>
<path d="M107.574 46.7215V51.6196H108.653H109.733V46.7215V41.8233H108.653H107.574V46.7215Z" fill="white"/>
<path d="M112.555 46.7215V51.6196H115.709H118.864V50.7064V49.7932H116.789H114.713V48.6309V47.4686H116.374H118.034V46.6384V45.8082H116.374H114.713V44.646V43.4837H116.789H118.864V42.6535V41.8233H115.709H112.555V46.7215Z" fill="white"/>
<path d="M130.654 46.7215V51.6196H131.734H132.813V46.7215V41.8233H131.734H130.654V46.7215Z" fill="white"/>
<path d="M147.424 46.7215V51.6196H148.337H149.25V48.3321V45.0611L150.512 47.4686C152.056 50.3909 152.123 50.4906 152.886 50.4242C153.451 50.3743 153.534 50.2913 154.348 48.797C154.813 47.9336 155.427 46.8045 155.709 46.3064L156.207 45.3931L156.224 48.4981V51.6196H157.22H158.216V46.7215V41.8233H157.137C155.859 41.8233 156.124 41.5244 154.198 45.2437L152.82 47.9336L151.226 44.9116L149.632 41.9063L148.52 41.8565L147.424 41.8067V46.7215Z" fill="white"/>
<path d="M89.3919 55.2393C88.213 55.8038 87.6485 56.6838 87.6485 57.9457C87.6485 59.2741 88.3625 60.071 90.1391 60.6688C91.5338 61.1337 91.9655 61.4658 91.9655 62.0303C91.9655 63.0764 90.5043 63.4085 89.1926 62.6447C88.3292 62.1465 87.9972 62.213 87.5655 63.01L87.25 63.6077L87.7315 64.0062C88.4621 64.6039 89.8568 64.9526 90.9693 64.853C92.1315 64.7534 92.8123 64.4213 93.41 63.6409C93.7753 63.1428 93.8749 62.8273 93.9247 61.9307C94.0078 60.1541 93.5761 59.7058 90.7534 58.6763C89.7572 58.3276 89.4583 57.8129 89.8734 57.182C90.1059 56.8333 90.2719 56.7669 90.936 56.7669C91.3677 56.7835 91.8991 56.8831 92.1315 57.0159C92.8123 57.3978 93.2606 57.3314 93.5428 56.7669C93.9247 56.0197 93.8583 55.8038 93.0945 55.4219C92.0817 54.9072 90.2885 54.8242 89.3919 55.2393Z" fill="white"/>
<path d="M96.2852 59.9214V64.7366H97.3644H98.4437V59.9214V55.1062H97.3644H96.2852V59.9214Z" fill="white"/>
<path d="M101.764 57.3478V59.5893L101.183 59.8716C100.618 60.1372 100.602 60.1871 100.602 61.0339C100.602 61.5154 100.635 61.9139 100.685 61.9139C100.751 61.9139 101 61.7976 101.266 61.6648L101.764 61.3992V63.0762V64.7366H104.669H107.575V63.9064V63.0762H105.749H103.922V61.781V60.5025L104.968 59.938C105.533 59.6225 106.048 59.2904 106.114 59.1908C106.313 58.9086 106.263 57.5968 106.081 57.5968C105.981 57.5968 105.466 57.8293 104.919 58.095L103.922 58.5931V56.8497V55.1062H102.843H101.764V57.3478Z" fill="white"/>
<path d="M109.4 59.9216V64.7368H111.559C113.717 64.7368 113.717 64.7368 113.385 65.0689C112.954 65.5006 112.954 66.4138 113.385 66.8123C113.634 67.0448 113.9 67.0946 114.631 67.0282C115.71 66.9451 115.776 66.8787 115.643 66.3142C115.56 66.0153 115.428 65.8991 115.112 65.8991C114.896 65.8991 114.664 65.7829 114.597 65.65C114.481 65.3179 114.996 64.7368 115.411 64.7368C115.66 64.7368 115.71 64.604 115.71 63.9066V63.0764H113.717H111.725V61.9141V60.7518H113.302H114.88V59.9216V59.0914H113.302H111.725V57.9292V56.7669H113.717H115.71V55.9367V55.1065H112.555H109.4V59.9216Z" fill="white"/>
</svg>
