<svg width="290" height="40" viewBox="0 0 290 40" fill="none" xmlns="http://www.w3.org/2000/svg">
  <!-- EU Flag -->
  <rect width="60" height="40" fill="#003399"/>

  <!-- EU Stars (12 stars in circle) -->
  <g fill="#FFCC00">
    <!-- Top star -->
    <polygon points="30,5 30.8,7.5 33.5,7.5 31.3,9.1 32.1,11.6 30,10 27.9,11.6 28.7,9.1 26.5,7.5 29.2,7.5"/>

    <!-- Top-right stars (clockwise) -->
    <polygon points="38.5,7.5 39,9.5 41,9.5 39.5,10.7 40,12.7 38.5,11.5 37,12.7 37.5,10.7 36,9.5 38,9.5"/>
    <polygon points="44,13 44.3,14.7 46,14.7 44.8,15.7 45.1,17.4 44,16.4 42.9,17.4 43.2,15.7 42,14.7 43.7,14.7"/>

    <!-- Right stars -->
    <polygon points="46,20 46.2,21.5 47.7,21.5 46.6,22.4 46.8,23.9 46,23 45.2,23.9 45.4,22.4 44.3,21.5 45.8,21.5"/>
    <polygon points="44,27 44.3,28.7 46,28.7 44.8,29.7 45.1,31.4 44,30.4 42.9,31.4 43.2,29.7 42,28.7 43.7,28.7"/>

    <!-- Bottom-right stars -->
    <polygon points="38.5,32.5 39,34.5 41,34.5 39.5,35.7 40,37.7 38.5,36.5 37,37.7 37.5,35.7 36,34.5 38,34.5"/>

    <!-- Bottom star -->
    <polygon points="30,35 30.8,37.5 33.5,37.5 31.3,39.1 32.1,41.6 30,40 27.9,41.6 28.7,39.1 26.5,37.5 29.2,37.5" transform="translate(0,-1)"/>

    <!-- Bottom-left stars -->
    <polygon points="21.5,32.5 22,34.5 24,34.5 22.5,35.7 23,37.7 21.5,36.5 20,37.7 20.5,35.7 19,34.5 21,34.5"/>
    <polygon points="16,27 16.3,28.7 18,28.7 16.8,29.7 17.1,31.4 16,30.4 14.9,31.4 15.2,29.7 14,28.7 15.7,28.7"/>

    <!-- Left stars -->
    <polygon points="14,20 14.2,21.5 15.7,21.5 14.6,22.4 14.8,23.9 14,23 13.2,23.9 13.4,22.4 12.3,21.5 13.8,21.5"/>
    <polygon points="16,13 16.3,14.7 18,14.7 16.8,15.7 17.1,17.4 16,16.4 14.9,17.4 15.2,15.7 14,14.7 15.7,14.7"/>

    <!-- Top-left stars -->
    <polygon points="21.5,7.5 22,9.5 24,9.5 22.5,10.7 23,12.7 21.5,11.5 20,12.7 20.5,10.7 19,9.5 21,9.5"/>
  </g>

  <!-- Text -->
  <text x="70" y="16" font-family="Arial, sans-serif" font-size="10" font-weight="bold" fill="#003399">Dofinansowane przez</text>
  <text x="70" y="30" font-family="Arial, sans-serif" font-size="10" font-weight="bold" fill="#003399">Unię Europejską</text>
</svg>
